<svg width="895" height="242" viewBox="0 0 895 242" fill="none" xmlns="http://www.w3.org/2000/svg">
<path d="M0.999998 6C0.447713 6 0 6.44772 0 7V197.625C0 198.177 0.447715 198.625 1 198.625H43.5115C44.0638 198.625 44.5115 198.177 44.5115 197.625V191.25C44.5115 190.698 44.0638 190.25 43.5115 190.25H9.093C8.54072 190.25 8.09301 189.802 8.09301 189.25V15.375C8.09301 14.8227 8.54072 14.375 9.09301 14.375H88.0231C88.5754 14.375 89.0231 14.8227 89.0231 15.375V63.625C89.0231 64.1772 89.4708 64.625 90.0231 64.625H136.581C137.133 64.625 137.581 65.0727 137.581 65.625V118.062C137.581 118.615 138.029 119.062 138.581 119.062H144.674C145.226 119.062 145.674 118.615 145.674 118.062V59.1078C145.674 58.8485 145.573 58.5994 145.393 58.4129L95.0399 6.3051C94.8515 6.11011 94.592 6 94.3208 6H0.999998ZM97.1161 22.7703C97.1161 21.8711 98.2104 21.4288 98.8352 22.0754L130.221 54.5551C130.835 55.1898 130.385 56.25 129.502 56.25H98.1161C97.5638 56.25 97.1161 55.8023 97.1161 55.25V22.7703ZM45.5115 35.3125C44.9592 35.3125 44.5115 35.7602 44.5115 36.3125V43.9622C44.5115 44.4395 44.1729 44.8485 43.7075 44.9548C37.4676 46.3795 32.8741 49.668 30.8467 53.4938C28.306 58.2882 28.3247 63.0347 28.3255 63.1428C28.3255 63.1462 28.3255 63.1464 28.3255 63.1498C28.3272 69.6379 31.5497 74.7043 35.6519 77.8581C39.7552 81.0128 44.6143 82.8014 49.1666 84.5565C53.7189 86.3116 57.9645 88.0392 60.6897 90.1344C63.4139 92.2288 64.7431 94.1454 64.7441 98.1205C64.7441 98.1234 64.7441 98.1242 64.744 98.1271C64.7428 98.2183 64.6887 101.208 62.8314 104.283C60.945 107.407 57.5952 110.687 48.558 110.687C39.7906 110.687 36.5208 106.769 34.4743 102.533C33.019 99.5213 32.5704 96.4463 32.4327 94.921C32.3834 94.3759 31.932 93.9374 31.3847 93.9374H25.2699C24.7212 93.9374 24.2807 94.3772 24.3134 94.925C24.4315 96.8998 24.9517 101.554 27.2349 106.279C29.7696 111.525 35.2194 116.744 43.6669 118.329C44.1515 118.42 44.5115 118.837 44.5115 119.33V126.437C44.5115 126.99 44.9593 127.437 45.5115 127.437H51.6045C52.1568 127.437 52.6045 126.99 52.6045 126.437V118.973C52.6045 118.475 52.9716 118.055 53.4627 117.973C61.4301 116.651 67.0852 113.032 69.6916 108.716C72.8475 103.491 72.8372 98.1777 72.8371 98.1253C72.8371 98.1237 72.8371 98.1241 72.8371 98.1225C72.8362 91.633 69.6135 86.5657 65.5107 83.4115C61.4074 80.2568 56.5483 78.4682 51.996 76.7131C47.4437 74.958 43.1981 73.2386 40.4729 71.1434C37.7497 69.0498 36.4205 67.1256 36.4185 63.1534C36.4185 63.1476 36.4186 63.1419 36.4187 63.1361C36.4231 62.9645 36.5144 60.2232 37.9439 57.5258C39.4202 54.7398 41.6948 52.0624 48.558 52.0624C55.3022 52.0624 57.5604 54.9341 59.1011 58.1229C60.1277 60.2476 60.495 62.4276 60.6258 63.6459C60.6841 64.1885 61.1351 64.6249 61.6809 64.6249H67.8015C68.3495 64.6249 68.7893 64.1863 68.7529 63.6395C68.6383 61.9177 68.1784 58.1809 66.3405 54.377C64.3571 50.2719 59.7291 46.6274 53.3926 45.0633C52.9349 44.9503 52.6045 44.5448 52.6045 44.0735V36.3124C52.6045 35.7601 52.1568 35.3124 51.6045 35.3124L45.5115 35.3125ZM141.628 127.437C133.415 127.437 125.981 128.628 120.241 130.75C117.371 131.811 114.903 133.085 112.915 134.823C111.204 136.318 109.8 138.407 109.422 140.883C109.309 141.276 109.253 141.684 109.256 142.094V147.194C109.256 147.933 108.485 148.41 107.814 148.104C107.348 147.891 106.87 147.687 106.363 147.5C100.623 145.378 93.189 144.187 84.9765 144.187C76.7641 144.187 69.33 145.378 63.5901 147.5C60.7202 148.561 58.2523 149.835 56.2637 151.573C54.5529 153.068 53.1492 155.157 52.7705 157.633C52.6582 158.026 52.6023 158.434 52.6045 158.844V192.344C52.6045 195.373 54.2751 197.877 56.2637 199.615C58.2523 201.352 60.7201 202.627 63.5901 203.688C69.33 205.809 76.7642 207 84.9765 207C93.1888 207 100.623 205.809 106.363 203.688C108.761 202.801 110.866 201.756 112.655 200.423C113.038 200.138 113.566 200.138 113.949 200.423C115.738 201.756 117.843 202.801 120.241 203.688C125.981 205.809 133.415 207 141.628 207C149.84 207 157.274 205.809 163.014 203.688C165.884 202.627 168.352 201.352 170.34 199.615C172.329 197.877 174 195.373 174 192.344V175.594V158.844V142.094C174.005 141.675 173.949 141.257 173.835 140.856C173.834 140.852 173.834 140.849 173.834 140.845V140.845C173.834 140.843 173.834 140.841 173.833 140.84C173.444 138.383 172.041 136.309 170.34 134.823C168.352 133.085 165.884 131.811 163.014 130.75C157.274 128.629 149.84 127.437 141.628 127.437ZM141.628 135.812C149.059 135.812 155.783 136.966 160.295 138.634C162.551 139.468 164.238 140.451 165.116 141.219C165.994 141.986 165.907 142.232 165.907 142.094C165.907 141.955 165.994 142.201 165.116 142.969C164.238 143.736 162.551 144.719 160.295 145.553C155.783 147.221 149.059 148.375 141.628 148.375C134.196 148.375 127.472 147.221 122.96 145.553C120.704 144.719 119.017 143.736 118.139 142.969C117.261 142.201 117.349 141.955 117.349 142.094C117.349 142.232 117.261 141.986 118.139 141.219C119.017 140.451 120.704 139.468 122.96 138.634C127.472 136.967 134.196 135.812 141.628 135.812ZM117.349 153.743C117.349 153.005 118.119 152.527 118.791 152.834C119.256 153.046 119.735 153.25 120.241 153.438C125.981 155.559 133.415 156.75 141.628 156.75C149.84 156.75 157.274 155.559 163.014 153.438C163.521 153.25 163.999 153.046 164.465 152.834C165.136 152.527 165.907 153.005 165.907 153.743V158.844C165.907 158.706 165.994 158.951 165.116 159.719C164.238 160.486 162.551 161.47 160.295 162.303C155.783 163.971 149.059 165.125 141.628 165.125C134.196 165.125 127.472 163.971 122.96 162.303C120.704 161.47 119.017 160.486 118.139 159.719C117.261 158.951 117.349 158.706 117.349 158.844V153.743ZM84.9766 152.562C92.4079 152.562 99.1323 153.716 103.644 155.384C105.9 156.218 107.587 157.201 108.465 157.969C109.343 158.736 109.256 158.982 109.256 158.844C109.256 158.705 109.343 158.951 108.465 159.719C107.587 160.486 105.9 161.469 103.644 162.303C99.1323 163.971 92.4079 165.125 84.9766 165.125C77.5452 165.125 70.8209 163.971 66.3089 162.303C64.053 161.469 62.366 160.486 61.4879 159.719C60.6097 158.951 60.6976 158.705 60.6976 158.844C60.6976 158.982 60.6097 158.736 61.4879 157.969C62.366 157.201 64.0529 156.218 66.3089 155.384C70.8209 153.717 77.5452 152.562 84.9766 152.562ZM60.6976 170.493C60.6976 169.755 61.4678 169.277 62.1396 169.584C62.6048 169.796 63.0835 170 63.5902 170.187C69.33 172.309 76.7642 173.5 84.9766 173.5C93.189 173.5 100.623 172.309 106.363 170.187C106.87 170 107.348 169.796 107.814 169.584C108.485 169.277 109.256 169.755 109.256 170.493V175.594C109.256 175.456 109.343 175.701 108.465 176.469C107.587 177.236 105.9 178.219 103.644 179.053C99.1323 180.721 92.4081 181.875 84.9766 181.875C77.5451 181.875 70.8208 180.721 66.3089 179.053C64.053 178.22 62.366 177.236 61.4879 176.469C60.6098 175.701 60.6976 175.456 60.6976 175.594V170.493ZM117.349 170.493C117.349 169.755 118.119 169.277 118.791 169.584C119.256 169.796 119.735 170 120.241 170.187C125.981 172.309 133.415 173.5 141.628 173.5C149.84 173.5 157.274 172.309 163.014 170.187C163.521 170 163.999 169.796 164.465 169.584C165.136 169.277 165.907 169.755 165.907 170.493V175.594C165.907 175.456 165.994 175.701 165.116 176.469C164.238 177.236 162.551 178.219 160.295 179.053C155.783 180.721 149.059 181.875 141.628 181.875C134.196 181.875 127.472 180.721 122.96 179.053C120.704 178.22 119.017 177.236 118.139 176.469C117.261 175.701 117.349 175.456 117.349 175.594V170.493ZM60.6976 187.243C60.6976 186.505 61.4678 186.027 62.1396 186.334C62.6048 186.546 63.0835 186.75 63.5902 186.937C69.3301 189.059 76.7642 190.25 84.9766 190.25C93.1889 190.25 100.623 189.059 106.363 186.937C106.87 186.75 107.348 186.546 107.814 186.334C108.485 186.027 109.256 186.505 109.256 187.243V192.344C109.256 192.206 109.343 192.451 108.465 193.219C107.587 193.986 105.9 194.969 103.644 195.803C99.1323 197.471 92.4081 198.625 84.9766 198.625C77.5451 198.625 70.8208 197.471 66.3089 195.803C64.053 194.97 62.366 193.986 61.4879 193.219C60.6098 192.451 60.6976 192.206 60.6976 192.344V187.243ZM117.349 187.243C117.349 186.505 118.119 186.027 118.791 186.334C119.256 186.546 119.735 186.75 120.241 186.937C125.981 189.059 133.415 190.25 141.628 190.25C149.84 190.25 157.274 189.059 163.014 186.937C163.521 186.75 163.999 186.546 164.465 186.334C165.136 186.027 165.907 186.505 165.907 187.243V192.344C165.907 192.206 165.994 192.451 165.116 193.219C164.238 193.986 162.551 194.969 160.295 195.803C155.783 197.471 149.059 198.625 141.628 198.625C134.196 198.625 127.472 197.471 122.96 195.803C120.704 194.97 119.017 193.986 118.139 193.219C117.261 192.451 117.349 192.206 117.349 192.344V187.243Z" fill="white"/>
<path d="M204.247 90V6.24H254.647V21.24H221.407V40.2H249.607V55.08H221.407V90H204.247ZM320.805 19.32C317.365 19.32 314.845 18.6 313.245 17.16C311.725 15.64 310.965 13.6 310.965 11.04V8.4C310.965 5.84 311.725 3.84 313.245 2.4C314.845 0.879998 317.365 0.119998 320.805 0.119998C324.245 0.119998 326.725 0.879998 328.245 2.4C329.845 3.84 330.645 5.84 330.645 8.4V11.04C330.645 13.6 329.845 15.64 328.245 17.16C326.725 18.6 324.245 19.32 320.805 19.32ZM312.405 27H329.205V90H312.405V27ZM389.412 90V27H406.212V37.68H408.132C408.612 36 409.252 34.44 410.052 33C410.852 31.56 411.852 30.28 413.052 29.16C414.252 28.04 415.652 27.16 417.252 26.52C418.852 25.88 420.692 25.56 422.772 25.56C428.452 25.56 432.772 27.48 435.732 31.32C438.772 35.08 440.292 40.36 440.292 47.16V90H423.492V50.4C423.492 42.96 420.892 39.24 415.692 39.24C413.132 39.24 410.892 40.04 408.972 41.64C407.132 43.16 406.212 45.32 406.212 48.12V90H389.412ZM541.336 90C534.776 90 531.216 86.36 530.656 79.08H529.096C528.456 82.92 526.736 85.96 523.936 88.2C521.136 90.36 517.576 91.44 513.256 91.44C507.576 91.44 503.296 89.84 500.416 86.64C497.536 83.36 496.096 78.84 496.096 73.08C496.096 66.2 498.176 61.2 502.336 58.08C506.576 54.96 512.456 53.4 519.976 53.4H529.096V48.48C529.096 45.2 528.416 42.76 527.056 41.16C525.696 39.56 523.416 38.76 520.216 38.76C517.416 38.76 515.056 39.48 513.136 40.92C511.296 42.28 509.656 44.12 508.216 46.44L498.256 37.56C500.816 33.8 503.936 30.88 507.616 28.8C511.296 26.64 516.016 25.56 521.776 25.56C530.016 25.56 536.096 27.48 540.016 31.32C543.936 35.16 545.896 40.88 545.896 48.48V76.92H551.056V90H541.336ZM519.976 79.68C522.456 79.68 524.576 79 526.336 77.64C528.176 76.2 529.096 74 529.096 71.04V63.24H521.536C515.776 63.24 512.896 65.64 512.896 70.44V72.72C512.896 75.12 513.496 76.88 514.696 78C515.976 79.12 517.736 79.68 519.976 79.68ZM607.291 90V27H624.091V37.68H626.011C626.491 36 627.131 34.44 627.931 33C628.731 31.56 629.731 30.28 630.931 29.16C632.131 28.04 633.531 27.16 635.131 26.52C636.731 25.88 638.571 25.56 640.651 25.56C646.331 25.56 650.651 27.48 653.611 31.32C656.651 35.08 658.171 40.36 658.171 47.16V90H641.371V50.4C641.371 42.96 638.771 39.24 633.571 39.24C631.011 39.24 628.771 40.04 626.851 41.64C625.011 43.16 624.091 45.32 624.091 48.12V90H607.291ZM740.736 91.44C731.936 91.44 725.296 88.76 720.816 83.4C716.336 78.04 714.096 69.76 714.096 58.56C714.096 47.36 716.336 39.08 720.816 33.72C725.296 28.28 731.936 25.56 740.736 25.56C746.976 25.56 751.936 27 755.616 29.88C759.376 32.68 762.056 36.68 763.656 41.88L750.096 47.88C749.696 44.84 748.776 42.6 747.336 41.16C745.896 39.64 743.696 38.88 740.736 38.88C734.656 38.88 731.616 42.48 731.616 49.68V67.32C731.616 74.52 734.656 78.12 740.736 78.12C743.776 78.12 746.016 77.36 747.456 75.84C748.976 74.24 750.096 71.84 750.816 68.64L763.896 74.4C760.456 85.76 752.736 91.44 740.736 91.44ZM843.917 91.44C835.277 91.44 828.357 88.72 823.157 83.28C818.037 77.76 815.477 69.52 815.477 58.56C815.477 47.36 817.717 39.08 822.197 33.72C826.757 28.28 833.437 25.56 842.237 25.56C851.037 25.56 857.677 28.28 862.157 33.72C866.717 39.08 868.997 47.36 868.997 58.56V62.64H832.997V66.6C832.997 70.12 834.077 72.96 836.237 75.12C838.397 77.2 841.357 78.24 845.117 78.24C848.237 78.24 850.877 77.56 853.037 76.2C855.277 74.76 857.317 72.8 859.157 70.32L867.677 80.28C865.117 83.72 861.837 86.44 857.837 88.44C853.917 90.44 849.277 91.44 843.917 91.44ZM842.237 38.16C836.077 38.16 832.997 41.76 832.997 48.96V52.8H851.477V48.96C851.477 41.76 848.397 38.16 842.237 38.16ZM260.287 163.32L261.247 149.28H259.327L254.167 162.6L240.247 192.96L226.447 162.6L221.287 149.28H219.367L220.327 163.32V207H204.247V123.24H222.247L233.647 148.2L239.887 166.08H241.087L247.327 148.2L258.487 123.24H276.367V207H260.287V163.32ZM335.321 207C328.761 207 325.201 203.36 324.641 196.08H323.081C322.441 199.92 320.721 202.96 317.921 205.2C315.121 207.36 311.561 208.44 307.241 208.44C301.561 208.44 297.281 206.84 294.401 203.64C291.521 200.36 290.081 195.84 290.081 190.08C290.081 183.2 292.161 178.2 296.321 175.08C300.561 171.96 306.441 170.4 313.961 170.4H323.081V165.48C323.081 162.2 322.401 159.76 321.041 158.16C319.681 156.56 317.401 155.76 314.201 155.76C311.401 155.76 309.041 156.48 307.121 157.92C305.281 159.28 303.641 161.12 302.201 163.44L292.241 154.56C294.801 150.8 297.921 147.88 301.601 145.8C305.281 143.64 310.001 142.56 315.761 142.56C324.001 142.56 330.081 144.48 334.001 148.32C337.921 152.16 339.881 157.88 339.881 165.48V193.92H345.041V207H335.321ZM313.961 196.68C316.441 196.68 318.561 196 320.321 194.64C322.161 193.2 323.081 191 323.081 188.04V180.24H315.521C309.761 180.24 306.881 182.64 306.881 187.44V189.72C306.881 192.12 307.481 193.88 308.681 195C309.961 196.12 311.721 196.68 313.961 196.68ZM357.476 207V144H374.276V154.68H376.196C376.676 153 377.316 151.44 378.116 150C378.916 148.56 379.916 147.28 381.116 146.16C382.316 145.04 383.716 144.16 385.316 143.52C386.916 142.88 388.756 142.56 390.836 142.56C396.516 142.56 400.836 144.48 403.796 148.32C406.836 152.08 408.356 157.36 408.356 164.16V207H391.556V167.4C391.556 159.96 388.956 156.24 383.756 156.24C381.196 156.24 378.956 157.04 377.036 158.64C375.196 160.16 374.276 162.32 374.276 165.12V207H357.476ZM465.6 207C459.04 207 455.48 203.36 454.92 196.08H453.36C452.72 199.92 451 202.96 448.2 205.2C445.4 207.36 441.84 208.44 437.52 208.44C431.84 208.44 427.56 206.84 424.68 203.64C421.8 200.36 420.36 195.84 420.36 190.08C420.36 183.2 422.44 178.2 426.6 175.08C430.84 171.96 436.72 170.4 444.24 170.4H453.36V165.48C453.36 162.2 452.68 159.76 451.32 158.16C449.96 156.56 447.68 155.76 444.48 155.76C441.68 155.76 439.32 156.48 437.4 157.92C435.56 159.28 433.92 161.12 432.48 163.44L422.52 154.56C425.08 150.8 428.2 147.88 431.88 145.8C435.56 143.64 440.28 142.56 446.04 142.56C454.28 142.56 460.36 144.48 464.28 148.32C468.2 152.16 470.16 157.88 470.16 165.48V193.92H475.32V207H465.6ZM444.24 196.68C446.72 196.68 448.84 196 450.6 194.64C452.44 193.2 453.36 191 453.36 188.04V180.24H445.8C440.04 180.24 437.16 182.64 437.16 187.44V189.72C437.16 192.12 437.76 193.88 438.96 195C440.24 196.12 442 196.68 444.24 196.68ZM540.795 211.92C540.795 215.2 540.315 218.12 539.355 220.68C538.395 223.24 536.715 225.4 534.315 227.16C531.995 228.92 528.835 230.24 524.835 231.12C520.835 232 515.795 232.44 509.715 232.44C504.515 232.44 500.195 232.08 496.755 231.36C493.315 230.72 490.515 229.76 488.355 228.48C486.275 227.28 484.795 225.76 483.915 223.92C483.035 222.08 482.595 220 482.595 217.68C482.595 214.64 483.515 212.2 485.355 210.36C487.195 208.6 489.875 207.44 493.395 206.88V204.36C490.355 203.8 488.155 202.56 486.795 200.64C485.435 198.72 484.755 196.4 484.755 193.68C484.755 192.24 485.035 190.96 485.595 189.84C486.235 188.72 487.035 187.76 487.995 186.96C489.035 186.16 490.195 185.48 491.475 184.92C492.755 184.36 494.075 183.92 495.435 183.6V181.92C491.915 180.24 489.355 177.88 487.755 174.84C486.155 171.8 485.355 168.12 485.355 163.8C485.355 157.16 487.275 151.96 491.115 148.2C494.955 144.44 501.235 142.56 509.955 142.56C511.635 142.56 513.275 142.72 514.875 143.04C516.555 143.28 518.115 143.64 519.555 144.12V141.84C519.555 138.64 520.315 136.28 521.835 134.76C523.355 133.24 525.515 132.48 528.315 132.48H537.315V145.08H524.595V147C527.875 148.36 530.355 150.48 532.035 153.36C533.795 156.24 534.675 159.72 534.675 163.8C534.675 170.36 532.755 175.52 528.915 179.28C525.075 182.96 518.755 184.8 509.955 184.8C507.955 184.8 506.075 184.72 504.315 184.56C502.635 184.32 500.995 184 499.395 183.6C498.115 184.72 497.475 186.52 497.475 189C497.475 190.6 497.955 191.8 498.915 192.6C499.955 193.4 501.675 193.8 504.075 193.8H520.995C528.115 193.8 533.195 195.4 536.235 198.6C539.275 201.72 540.795 206.16 540.795 211.92ZM525.075 214.08C525.075 212.16 524.395 210.68 523.035 209.64C521.755 208.6 519.595 208.08 516.555 208.08H496.995C496.435 208.88 495.995 209.8 495.675 210.84C495.435 211.88 495.315 212.96 495.315 214.08C495.315 216.4 496.115 218.16 497.715 219.36C499.395 220.56 502.435 221.16 506.835 221.16H513.555C517.955 221.16 520.955 220.56 522.555 219.36C524.235 218.16 525.075 216.4 525.075 214.08ZM509.955 173.64C513.235 173.64 515.555 172.88 516.915 171.36C518.355 169.84 519.075 167.6 519.075 164.64V162.72C519.075 159.76 518.355 157.52 516.915 156C515.555 154.48 513.235 153.72 509.955 153.72C506.675 153.72 504.315 154.48 502.875 156C501.515 157.52 500.835 159.76 500.835 162.72V164.64C500.835 167.6 501.515 169.84 502.875 171.36C504.315 172.88 506.675 173.64 509.955 173.64ZM573.809 208.44C565.169 208.44 558.249 205.72 553.049 200.28C547.929 194.76 545.369 186.52 545.369 175.56C545.369 164.36 547.609 156.08 552.089 150.72C556.649 145.28 563.329 142.56 572.129 142.56C580.929 142.56 587.569 145.28 592.049 150.72C596.609 156.08 598.889 164.36 598.889 175.56V179.64H562.889V183.6C562.889 187.12 563.969 189.96 566.129 192.12C568.289 194.2 571.249 195.24 575.009 195.24C578.129 195.24 580.769 194.56 582.929 193.2C585.169 191.76 587.209 189.8 589.049 187.32L597.569 197.28C595.009 200.72 591.729 203.44 587.729 205.44C583.809 207.44 579.169 208.44 573.809 208.44ZM572.129 155.16C565.969 155.16 562.889 158.76 562.889 165.96V169.8H581.369V165.96C581.369 158.76 578.289 155.16 572.129 155.16ZM611.707 207V144H628.507V157.44H630.427C630.667 155.68 631.067 154 631.627 152.4C632.187 150.72 632.947 149.28 633.907 148.08C634.947 146.8 636.227 145.8 637.747 145.08C639.267 144.36 641.067 144 643.147 144H646.147V161.04H641.827C637.267 161.04 633.907 161.68 631.747 162.96C629.587 164.24 628.507 166.68 628.507 170.28V207H611.707ZM732.319 207L727.159 186.48H701.479L696.319 207H679.879L703.639 123.24H725.479L749.239 207H732.319ZM717.799 153.36L715.159 138.84H713.239L710.599 153.36L705.679 172.68H722.959L717.799 153.36ZM760.779 144H777.579V154.44H779.499C779.819 152.76 780.419 151.2 781.299 149.76C782.259 148.32 783.379 147.08 784.659 146.04C785.939 144.92 787.379 144.08 788.979 143.52C790.579 142.88 792.219 142.56 793.899 142.56C801.179 142.56 806.499 145.32 809.859 150.84C813.299 156.36 815.019 164.6 815.019 175.56C815.019 186.52 813.339 194.76 809.979 200.28C806.619 205.72 801.259 208.44 793.899 208.44C792.219 208.44 790.579 208.12 788.979 207.48C787.379 206.92 785.939 206.12 784.659 205.08C783.379 203.96 782.259 202.68 781.299 201.24C780.419 199.8 779.819 198.24 779.499 196.56H777.579V231H760.779V144ZM787.179 194.76C790.299 194.76 792.779 193.8 794.619 191.88C796.539 189.88 797.499 187.08 797.499 183.48V167.52C797.499 163.92 796.539 161.16 794.619 159.24C792.779 157.24 790.299 156.24 787.179 156.24C784.139 156.24 781.779 156.96 780.099 158.4C778.419 159.76 777.579 161.84 777.579 164.64V186.36C777.579 189.16 778.419 191.28 780.099 192.72C781.779 194.08 784.139 194.76 787.179 194.76ZM828.555 144H845.355V154.44H847.275C847.595 152.76 848.195 151.2 849.075 149.76C850.035 148.32 851.155 147.08 852.435 146.04C853.715 144.92 855.155 144.08 856.755 143.52C858.355 142.88 859.995 142.56 861.675 142.56C868.955 142.56 874.275 145.32 877.635 150.84C881.075 156.36 882.795 164.6 882.795 175.56C882.795 186.52 881.115 194.76 877.755 200.28C874.395 205.72 869.035 208.44 861.675 208.44C859.995 208.44 858.355 208.12 856.755 207.48C855.155 206.92 853.715 206.12 852.435 205.08C851.155 203.96 850.035 202.68 849.075 201.24C848.195 199.8 847.595 198.24 847.275 196.56H845.355V231H828.555V144ZM854.955 194.76C858.075 194.76 860.555 193.8 862.395 191.88C864.315 189.88 865.275 187.08 865.275 183.48V167.52C865.275 163.92 864.315 161.16 862.395 159.24C860.555 157.24 858.075 156.24 854.955 156.24C851.915 156.24 849.555 156.96 847.875 158.4C846.195 159.76 845.355 161.84 845.355 164.64V186.36C845.355 189.16 846.195 191.28 847.875 192.72C849.555 194.08 851.915 194.76 854.955 194.76Z" fill="white"/>
</svg>
